<svg xmlns="http://www.w3.org/2000/svg" width="1024" height="1024" viewBox="0 0 1024 1024" role="img" aria-label="Mock generated product image">
  <defs>
    <linearGradient id="bg" x1="0" x2="1" y1="0" y2="1">
      <stop offset="0" stop-color="#f8fafc"/>
      <stop offset="1" stop-color="#e5e7eb"/>
    </linearGradient>
    <filter id="shadow" x="-20%" y="-20%" width="140%" height="140%">
      <feDropShadow dx="0" dy="18" stdDeviation="22" flood-color="#0f172a" flood-opacity="0.18"/>
    </filter>
  </defs>
  <rect width="1024" height="1024" fill="url(#bg)"/>
  <rect x="176" y="232" width="672" height="520" rx="28" fill="#f6f1e8" filter="url(#shadow)"/>
  <path d="M238 304c102 24 186 18 292-10 76-20 152-14 258 24" fill="none" stroke="#1f2937" stroke-width="22" stroke-linecap="round" opacity="0.82"/>
  <path d="M248 430c94-22 165-13 246 18 90 35 180 28 284-18" fill="none" stroke="#9f6032" stroke-width="20" stroke-linecap="round" opacity="0.78"/>
  <path d="M246 572c130 34 246 36 350 0 56-19 112-20 184-4" fill="none" stroke="#334155" stroke-width="18" stroke-linecap="round" opacity="0.72"/>
  <path d="M300 680c78-42 152-42 222 0 52 31 120 34 206 8" fill="none" stroke="#64748b" stroke-width="16" stroke-linecap="round" opacity="0.76"/>
  <text x="512" y="828" text-anchor="middle" font-family="-apple-system, BlinkMacSystemFont, Segoe UI, sans-serif" font-size="34" fill="#475569">Mock generated output</text>
</svg>
